<svg xmlns="http://www.w3.org/2000/svg" xml:space="preserve" width="800" height="800" viewBox="0 0 512 512"><path d="M280.913 168.395C236.124 35.98 195.191-7.068 162.706 12.531s-13.489 75.882 82.769 177.245zM317.59 168.395C362.379 35.98 403.312-7.068 435.797 12.531s13.489 75.882-82.769 177.245z" style="fill:#caced9"/><circle cx="385.763" cy="441.83" r="27.136" style="fill:#caced9"/><path d="M368.716 449.031c15.042-59.292-9.231-115.173-42.182-144.414h-95.647l-10.934 150.93z" style="fill:#dde1ed"/><path d="M380.924 213.936c0-45.106-36.566-81.672-81.672-81.672s-81.672 36.566-81.672 81.672c-41.774 0-62.66 131.479 81.672 131.479s123.446-131.479 81.672-131.479" style="fill:#dde1ed"/><path d="M223.625 494.171c48.584-18.435 85.71-74.582 52.408-162.343s-111.218-137.563-159.29-119.321-73.334 107.196-40.032 194.957 98.331 105.142 146.914 86.707" style="fill:#61ccff"/><path d="M255.793 462.004c-48.584 18.435-113.612 1.053-146.914-86.707-23.231-61.22-17.957-123.014 3.672-160.986-45.318 21.692-68.159 107.983-35.84 193.154 33.302 87.76 98.331 105.144 146.914 86.707 19.745-7.493 37.597-21.214 49.599-40.755a102.3 102.3 0 0 1-17.431 8.587" style="opacity:.1"/><path d="M262.628 387.707c-15.831-3.858-25.839-19.623-22.455-35.68 3.452-16.373 19.521-26.848 35.895-23.398 24.089 5.078 35.623-2.223 37.059-3.224 12.313-10.495 30.828-9.472 41.899 2.522 11.35 12.294 10.584 31.463-1.712 42.812-3.259 3.009-33.46 29.045-89.744 17.182a36 36 0 0 1-.942-.214M322.978 397.889c-17.81-.462-36.845 7.095-48.412 18.655-12.144 12.136-21.311 33.128-17.667 50.604 0 0-11.698.479-20.84 8.889-10.773 9.909-3.568 27.934 11.068 27.934h61.376c31.657 0 60.333-21.612 60.216-54.94-.096-26.208-18.323-50.431-45.741-51.142" style="fill:#caced9"/><circle cx="255.442" cy="237.46" r="9.374"/><path d="M327.185 268.598c-6.767 3.488-12.031 4.452-14.824 2.713-3.629-2.259-4.909-9.489-5.066-13.606 2.455-1.457 4.008-3.563 4.008-5.912 0-4.396-5.402-7.959-12.065-7.959s-12.065 3.563-12.065 7.959c0 2.349 1.553 4.455 4.007 5.911-.161 4.143-1.443 11.351-5.065 13.607-2.793 1.738-8.057.775-14.824-2.713a8.043 8.043 0 0 0-7.37 14.295c6.928 3.572 13.219 5.359 18.822 5.359 4.417 0 8.406-1.111 11.945-3.334a21.9 21.9 0 0 0 4.55-3.82 21.7 21.7 0 0 0 4.55 3.82c8.027 5.043 18.378 4.361 30.767-2.025a8.04 8.04 0 0 0 3.463-10.833 8.04 8.04 0 0 0-10.833-3.462"/><circle cx="343.045" cy="237.46" r="9.374"/><path d="M457.586 30.339c-2.15-10.625-8.087-18.937-17.647-24.705-10.054-6.067-21.15-7.26-32.085-3.454-27.542 9.588-55.838 51.777-84.151 125.438a89.44 89.44 0 0 0-48.928.001c-15.713-40.885-31.482-72.296-46.915-93.431-15.44-21.145-41.742-45.193-69.32-28.553-10.113 6.101-16.354 15.429-18.045 26.97-4.411 30.108 22.11 77.427 78.803 140.672a89 89 0 0 0-9.506 33.694c-5.882 1.68-11.337 5.282-16.043 10.586-28.486-16.615-57.054-21.237-79.87-12.58-14.963 5.678-28.298 17.515-38.562 34.233a8.04 8.04 0 0 0 2.645 11.06 8.04 8.04 0 0 0 11.06-2.645c8.387-13.658 18.955-23.207 30.562-27.61 45.485-17.259 94.845 27.372 119.573 60.803a222 222 0 0 1 22.796 38.38q.325.693.646 1.387c-.331.063-.654.153-.983.224l-.198.045c-18.53 4.102-31.617 22.412-29.783 41.268 1.538 15.793 12.793 29.416 29.087 33.388 1.603.388 19.914 3.382 19.925 3.038a69 69 0 0 1-.16 3.164 70 70 0 0 0-5.603 3.887c-2.108 1.621-4.135 3.363-6.016 5.243-11.133 11.126-21.436 30.542-20.821 49.728.001.026-8.043 3.082-8.532 3.333-3.394 1.74-6.569 3.924-9.314 6.579-4.121 3.987-6.841 9.573-7.287 15.306q-1.089.447-2.154.851c-24.088 9.14-49.938 7.994-72.79-3.23-27.214-13.366-49.259-40.618-63.753-78.812-16.149-42.556-19.084-88.875-8.054-127.079a8.043 8.043 0 0 0-15.452-4.462c-11.976 41.479-8.89 91.503 8.469 137.247 15.966 42.075 40.759 72.347 71.7 87.543 14.904 7.32 30.881 11.001 46.983 11 12.953 0 25.987-2.383 38.602-7.17.208-.078.419-.165.628-.246 4.449 6.552 11.84 10.568 20.019 10.568h61.374c5.222 0 10.471-.54 15.602-1.606a8.04 8.04 0 0 0 6.238-9.509 8.04 8.04 0 0 0-9.509-6.238 60.8 60.8 0 0 1-12.332 1.27h-61.374c-5.167 0-7.13-4.005-7.611-5.234-1.182-3.027-.41-6.536 1.987-8.74 6.743-6.202 15.695-6.769 15.727-6.772a8.04 8.04 0 0 0 7.543-9.676c-6.638-31.852 29.582-63.191 59.779-59.778a40.6 40.6 0 0 1 12.326 3.411c27.351 12.505 31.021 52.318 10.151 72.18a8.043 8.043 0 0 0 11.088 11.652 59.8 59.8 0 0 0 13.416-18.966 35.1 35.1 0 0 0 14.231 3.006c19.398 0 35.179-15.781 35.179-35.178 0-19.398-15.781-35.179-35.179-35.179a35 35 0 0 0-4.529.301c-.763-20.64-5.564-38.26-10.753-51.579a38.48 38.48 0 0 0-.484-16.08c18.816-9.262 33.074-23.024 41.461-40.163 7.905-16.153 10.353-34.731 6.893-52.309-4.088-20.774-15.539-35.764-29.649-39.825a89 89 0 0 0-9.502-33.703c7.749-8.644 15.022-17.088 21.664-25.153a8.04 8.04 0 0 0-1.097-11.32 8.04 8.04 0 0 0-11.32 1.096 762 762 0 0 1-18.175 21.225 90.3 90.3 0 0 0-12.985-13.57l-.087-.073a88 88 0 0 0-9.11-6.776c-.753-.488-9.333-5.394-9.354-5.339 32.919-85.724 58.557-110.481 74.418-116.002 6.45-2.246 12.497-1.58 18.489 2.034 5.622 3.393 8.955 8.012 10.193 14.125 2.36 11.663-1.586 34.864-33.79 79.162a8.043 8.043 0 0 0 13.01 9.458c29.016-39.914 40.97-69.946 36.545-91.811m-81.165 425.202.059-.617c.148-1.629.24-3.261.261-4.896a164 164 0 0 0 1.094-4.786 156 156 0 0 0 3.113-21.914 19 19 0 0 1 4.802-.605c10.53 0 19.096 8.566 19.096 19.096 0 10.528-8.566 19.095-19.096 19.095a19 19 0 0 1-9.659-2.624c.131-.912.238-1.83.33-2.749M156.408 34.937c.998-6.815 4.412-11.894 10.438-15.53 14.726-8.886 29.288 2.459 39.17 13.222 19.259 20.974 31.848 48.398 42.983 74.247 3.771 8.755 7.337 17.598 10.756 26.496-.024-.055-10.904 6.351-11.875 7.035l-.285.202a90.5 90.5 0 0 0-19.371 18.518c-31.617-35.721-76.428-92.711-71.816-124.19m132.484 347.958q-2.738-.072-5.523-.275l-.386-.027c-8.445-.652-18.537-1.027-25.777-5.953-6.08-4.137-9.755-11.21-9.665-18.562.139-11.337 8.947-20.716 20.169-21.818 3.697-.363 7.149.391 10.766.996 11.95 1.997 25.409 2.034 36.452-3.622.042-.021.076-.042.119-.063 2.75-1.424 4.963-3.62 7.737-5.008 7.264-3.636 16.234-2.987 22.85 1.739a22.7 22.7 0 0 1 3.47 3.066 22.4 22.4 0 0 1 5.885 15.985c-.551 13.769-13.443 21.306-24.674 26.117-13.02 5.581-27.31 7.791-41.423 7.425m75.988 29.248c-5.379-7.311-12.542-13.346-20.727-17.279a51.3 51.3 0 0 0-9.972-3.562c4.782-1.901 9.451-4.116 13.866-6.766 3.284-1.97 6.533-4.257 9.469-6.796.326-.282 2.721-2.135 2.633-2.455 2.955 10.728 5.091 23.335 5.09 37.354a30 30 0 0 0-.359-.496m-24.924-259.526c5.832 3.882 11.477 8.926 16.069 14.485q.013.017.027.032c10.503 12.73 16.819 29.035 16.819 46.789a8.043 8.043 0 0 0 8.042 8.042c9.354 0 18.457 11.754 21.643 27.948 4.702 23.889-3.168 57.036-39.607 74.929-.047-.06-.101-.115-.149-.176a39 39 0 0 0-1.875-2.207 38.46 38.46 0 0 0-28.18-12.334c-8.755 0-17.606 3.147-24.428 8.795-.079.047-.19.11-.316.18-7.946 4.372-18.338 3.728-26.976 2.266-.186-.031-.376-.072-.563-.105q-.054-.127-.109-.254c-16.305-38.85-41.968-72.156-72.79-94.435l-.095-.07c2.67-2.494 6.083-4.538 10.098-4.538a8.043 8.043 0 0 0 8.042-8.042c0-17.759 6.32-34.068 16.84-46.815 7.723-9.362 17.788-16.816 29.043-21.37a73.2 73.2 0 0 1 27.748-5.446c14.415.003 28.719 4.34 40.717 12.326"/></svg>