<svg xmlns="http://www.w3.org/2000/svg" xml:space="preserve" width="800" height="800" viewBox="0 0 512 512"><path d="M404.444 390.666c-5.831 38.745-48.023 61.597-67.992 61.597H175.527c-19.958 0-62.151-22.852-67.981-61.597-5.423-35.986 7.534-78.555 23.197-114.176 18.61-42.318 41.044-74.825 41.044-74.825 63.624-19.331 104.782-19.331 168.406 0 0 0 38.358 55.568 56.362 115.973 7.366 24.691 11.326 50.187 7.889 73.028" style="fill:#ba8859"/><path d="M404.444 390.666c-5.831 38.745-48.023 61.597-67.992 61.597H175.527c-19.958 0-62.151-22.852-67.981-61.597-5.423-35.986 7.534-78.555 23.197-114.176l28.641-9.435 30.198 46.101 66.414-39.852 35.15 44.993 61.461-51.242 43.948 50.584c7.366 24.69 11.326 50.186 7.889 73.027" style="fill:#7d522a"/><path d="m247.982 99.997-9.874 3.605-15.788 5.768c-23.03-13.302-43.886-14.054-79.444-30.427-13.197-6.071-22.58-17.429-25.903-29.309-5.663-20.135 6.102-41.785 46.258-41.796 63.466-.012 84.751 92.159 84.751 92.159" style="fill:#ba8859"/><path d="m238.107 103.602-15.788 5.768c-23.03-13.302-43.886-14.054-79.444-30.427-13.197-6.071-22.58-17.429-25.903-29.309 8.579-6.29 21.577-10.303 39.863-10.313 42.047-.012 67.511 35.431 81.272 64.281" style="fill:#7d522a"/><path d="m264.007 99.997 9.874 3.605 15.788 5.768c23.03-13.302 43.886-14.054 79.444-30.427 13.197-6.071 22.58-17.429 25.903-29.309 5.663-20.135-6.102-41.785-46.258-41.796-63.466-.012-84.751 92.159-84.751 92.159" style="fill:#ba8859"/><path d="m273.882 103.602 15.788 5.768c23.03-13.302 43.886-14.054 79.444-30.427 13.197-6.071 22.58-17.429 25.903-29.309-8.579-6.29-21.577-10.303-39.863-10.313-42.047-.012-67.511 35.431-81.272 64.281" style="fill:#7d522a"/><path d="M333.647 238.393c-27.199 44.05-77.657 44.05-77.657 44.05s-50.449 0-77.647-44.05c-34.103-55.211 1.244-79.836 1.244-79.836 4.519-57.625 76.403-60.507 76.403-60.507s71.893 2.882 76.412 60.507c0 0 35.348 24.625 1.245 79.836" style="fill:#ba8859"/><path d="M271.737 261.487s-53.931 0-83.007-44.049c-15.005-22.723-17.429-40.261-15.091-53.038-8.341 10.22-19.918 34.135 4.702 73.993 27.199 44.049 77.647 44.049 77.647 44.049s48.165-.007 75.745-41.093c-27.991 20.133-59.996 20.138-59.996 20.138" style="fill:#7d522a"/><path d="M255.995 504.163c-224.063 0-212-230.862-212-230.862l66.418 50.354 48.974-56.595 46.291 70.658 50.316-64.417 50.316 64.417 46.291-70.658 48.974 56.595 66.418-50.354c.002 0 12.065 230.862-211.998 230.862" style="fill:#fff3dc"/><path d="M278.76 481.175c-163.069 0-201.069-122.278-209.674-188.852L43.995 273.3s-12.062 230.862 212 230.862c79.911 0 129.781-29.367 160.882-67.15-31.161 26.063-75.381 44.163-138.117 44.163" style="fill:#f0dfc0"/><circle cx="229.177" cy="173.484" r="7.018"/><circle cx="282.811" cy="173.484" r="7.018"/><path d="M264.875 216.725c2.973-2.097 12.387-.964 18.964 1.364a7.838 7.838 0 0 0 5.283-14.758c-3.577-1.28-21.925-7.253-33.127.479-11.203-7.73-29.55-1.759-33.127-.479a7.83 7.83 0 0 0-4.734 10.004c1.449 4.072 5.932 6.2 10.004 4.757 6.592-2.332 16.007-3.467 18.978-1.368.285.202 1.043.738 1.043 3.342a7.837 7.837 0 0 0 7.837 7.837 7.837 7.837 0 0 0 7.837-7.837c-.001-2.603.756-3.139 1.042-3.341"/><path d="M471.297 266.194a7.83 7.83 0 0 0-8.036.862l-60.057 45.531c-13.515-43.748-37.255-84.804-48.673-103.169 6.993-30.878-7.95-48.643-14.657-54.822-2.334-18.933-11.704-34.48-27.419-45.722 5.841-2.368 11.793-4.403 18.252-6.597 11.544-3.923 24.629-8.368 41.686-16.218 22.132-10.195 35.434-33.343 30.94-53.846C401.212 22.531 391.646.007 348.762 0h-.013c-27.448 0-51.721 15.692-70.188 45.376-10.673 17.155-16.972 34.886-20.03 44.995-1.365-.112-2.161-.145-2.229-.148l-.307-.013-.307.013c-.069.003-.869.037-2.241.149-2.5-8.226-7.223-21.762-14.709-35.77a7.838 7.838 0 0 0-13.824 7.386c6.286 11.766 10.447 23.148 12.868 30.777-6.321 1.371-13.676 3.465-21.146 6.636-10.115-5.095-19.556-8.309-30.312-11.963-11.182-3.799-23.858-8.105-40.171-15.614-15.347-7.069-25.093-22.994-22.187-36.254 2.77-12.641 17.082-19.893 39.263-19.896 17.333 0 32.981 7.983 46.509 23.728a7.837 7.837 0 0 0 11.888-10.214C204.986 9.819 185.338 0 163.228 0c-42.885.007-52.451 22.531-54.573 32.214-4.493 20.503 8.808 43.651 30.942 53.846 17.056 7.851 30.14 12.296 41.685 16.218 6.46 2.194 12.411 4.23 18.252 6.597-15.715 11.243-25.085 26.79-27.419 45.722-6.704 6.178-21.636 23.942-14.652 54.802-11.409 18.34-35.14 59.365-48.684 103.184l-60.05-45.527a7.836 7.836 0 0 0-12.56 5.836c-.059 1.11-1.34 27.551 5.509 62.822 6.353 32.715 21.235 79.412 56.062 116.106C135.639 491.753 188.884 512 255.995 512c44.4 0 83.076-8.967 114.953-26.654 26.937-14.945 49.25-36.209 66.321-63.2a7.837 7.837 0 0 0-13.248-8.378c-34.646 54.782-91.178 82.558-168.027 82.558-62.596 0-111.99-18.576-146.81-55.215-47.335-49.806-55.844-120.894-57.208-151.925l53.703 40.714a7.84 7.84 0 0 0 10.661-1.116l42.183-48.747 40.603 61.976a7.84 7.84 0 0 0 6.23 3.535c2.522.126 4.945-1.014 6.501-3.005l44.141-56.511 44.141 56.511a7.8 7.8 0 0 0 6.501 3.005 7.84 7.84 0 0 0 6.23-3.535l40.603-61.976 42.183 48.747a7.84 7.84 0 0 0 10.661 1.116l53.733-40.737c-.891 21.16-5.088 60.979-22.763 99.94a7.836 7.836 0 1 0 14.273 6.476c27.196-59.943 24.398-120.153 24.266-122.687a7.85 7.85 0 0 0-4.529-6.698M348.759 15.673c22.182.003 36.494 7.255 39.264 19.896 2.906 13.26-6.84 29.186-22.185 36.254-16.315 7.51-28.99 11.816-40.172 15.614-10.756 3.654-20.198 6.868-30.313 11.963-7.47-3.171-14.825-5.265-21.146-6.636 6.976-21.978 29.013-77.098 74.552-77.091M206.238 324.272l-40.295-61.507a7.84 7.84 0 0 0-6.033-3.524 7.87 7.87 0 0 0-6.448 2.692l-15.733 18.181c8.956-20.413 18.821-38.515 26.434-51.487a133 133 0 0 0 7.509 13.885c17.874 28.953 44.999 40.347 63.416 44.828zm49.757-58.807a7.84 7.84 0 0 0-6.176 3.012l-3.972 5.084c-14.979-2.488-43.317-10.898-60.842-39.285-5.368-8.688-9.198-17.06-11.394-24.894l-.185-.683c-8.052-29.746 9.935-43.198 10.645-43.715l3.043-2.12.289-3.697c1.552-19.805 12.423-34.603 32.31-43.983 10.789-5.088 21.8-7.434 29.137-8.509 3.679-.537 6.282-.722 7.142-.774.868.052 3.463.237 7.127.772h.002l.015.002c7.337 1.073 18.349 3.42 29.138 8.509 19.889 9.38 30.76 24.178 32.31 43.983l.231 3.657 3.045 2.12c.77.558 18.764 14.01 10.7 43.784-2.159 8.011-6.053 16.608-11.577 25.55-17.524 28.385-45.863 36.795-60.841 39.283l-3.972-5.084a7.83 7.83 0 0 0-6.175-3.012m96.086-6.225a7.84 7.84 0 0 0-6.033 3.524l-40.295 61.507-28.848-36.933c18.416-4.483 45.541-15.875 63.415-44.826 2.894-4.686 5.387-9.317 7.507-13.876 7.611 12.974 17.473 31.07 26.421 51.458l-15.717-18.163a7.84 7.84 0 0 0-6.45-2.691"/></svg>