<svg xmlns="http://www.w3.org/2000/svg" width="800" height="800" fill="none" viewBox="0 0 24 24"><path fill="url(#a)" d="M16.131 3.714A5 5 0 0 0 12 5.891a5 5 0 0 0-4.131-2.177 5.014 5.014 0 0 0-5.012 5.012c0 6.108 9.143 11.6 9.143 11.6s9.143-5.492 9.143-11.6a5.014 5.014 0 0 0-5.012-5.012"/><path fill="url(#b)" d="M18.206 4.16c2.742 4.372.217 10.109-2.817 11.737-3.35 1.8-5.64.955-10.383-1.737C7.708 17.743 12 20.32 12 20.32s9.143-5.491 9.143-11.6a5.01 5.01 0 0 0-2.937-4.56" opacity=".5"/><path fill="url(#c)" d="M16.131 3.714A5 5 0 0 0 12 5.891a5 5 0 0 0-4.131-2.177 5.014 5.014 0 0 0-5.012 5.012c0 6.108 9.143 11.6 9.143 11.6s9.143-5.492 9.143-11.6a5.014 5.014 0 0 0-5.012-5.012" opacity=".5"/><path fill="url(#d)" d="M16.131 3.714A5 5 0 0 0 12 5.891a5 5 0 0 0-4.131-2.177 5.014 5.014 0 0 0-5.012 5.012c0 6.108 9.143 11.6 9.143 11.6s9.143-5.492 9.143-11.6a5.014 5.014 0 0 0-5.012-5.012" opacity=".5"/><path fill="url(#e)" d="M10.749 5.749c.502 1.183-.612 2.788-2.492 3.583-1.88.794-3.806.485-4.308-.692-.503-1.177.611-2.788 2.491-3.583 1.88-.794 3.806-.491 4.309.692" opacity=".24"/><path fill="url(#f)" d="M16.874 4.789c.715.788.274 2.348-.977 3.48-1.251 1.131-2.846 1.411-3.56.623-.714-.789-.274-2.349.977-3.48C14.566 4.28 16.16 4 16.874 4.789" opacity=".24"/><path fill="url(#g)" d="M16.223 5.046c2.514.857 4.914 4.571.857 9.2-2.428 2.771-5.08 4.171-8.451 3.623a30.5 30.5 0 0 0 3.377 2.457s9.143-5.492 9.143-11.6a5.023 5.023 0 0 0-5.018-5.012 5 5 0 0 0-4.13 2.177s2.382-1.474 4.222-.845" opacity=".32"/><defs><radialGradient id="a" cx="0" cy="0" r="1" gradientTransform="rotate(-29.408 20.598 -13.707)scale(14.3064 11.3486)" gradientUnits="userSpaceOnUse"><stop offset=".248" stop-color="red"/><stop offset=".864" stop-color="#C20000"/></radialGradient><radialGradient id="b" cx="0" cy="0" r="1" gradientTransform="matrix(10.73016 -6.0481 4.7977 8.51177 9.739 7.47)" gradientUnits="userSpaceOnUse"><stop offset=".248" stop-color="red"/><stop offset="1" stop-color="#C20000"/></radialGradient><radialGradient id="c" cx="0" cy="0" r="1" gradientTransform="rotate(-29.408 20.598 -13.707)scale(14.3064 11.3486)" gradientUnits="userSpaceOnUse"><stop stop-color="#fff" stop-opacity=".25"/><stop offset="1" stop-color="#fff" stop-opacity="0"/></radialGradient><radialGradient id="d" cx="0" cy="0" r="1" gradientTransform="rotate(-26.296 35.528 -24.494)scale(10.4431 5.16038)" gradientUnits="userSpaceOnUse"><stop stop-color="#BD2719" stop-opacity=".25"/><stop offset="1" stop-color="#BD2719" stop-opacity="0"/></radialGradient><radialGradient id="e" cx="0" cy="0" r="1" gradientTransform="matrix(3.44964 -1.37214 .85235 2.14287 7.347 7.195)" gradientUnits="userSpaceOnUse"><stop stop-color="#fff"/><stop offset="1" stop-color="#fff" stop-opacity="0"/></radialGradient><radialGradient id="f" cx="0" cy="0" r="1" gradientTransform="matrix(2.3281 -2.00697 1.24678 1.44628 14.6 6.846)" gradientUnits="userSpaceOnUse"><stop stop-color="#fff"/><stop offset="1" stop-color="#fff" stop-opacity="0"/></radialGradient><linearGradient id="g" x1="13.887" x2="15.658" y1="26.85" y2="2.964" gradientUnits="userSpaceOnUse"><stop stop-color="#860805"/><stop offset="1" stop-color="#BD2719" stop-opacity="0"/></linearGradient></defs></svg>