<svg xmlns="http://www.w3.org/2000/svg" xml:space="preserve" width="800" height="800" style="fill-rule:evenodd;clip-rule:evenodd;stroke-linejoin:round;stroke-miterlimit:2" viewBox="0 -0.5 513 513"><path d="M421.762 748.988H800v763.994H421.762z" style="fill:none" transform="matrix(1.35364 0 0 .67016 -570.58 -501.943)"/><path d="M686.871 296.049c-6.738 6.437-11.503 14.334-18.16 20.846-.784.767-2.541 4.906-3.665 5.031-1.328.149-2.277-1.759-3.201-2.777-2.896-3.191-6.865-7.917-5.945-11.364.097-.365 1.058-2.943-.49-2.77-1.17.131-3.136 3.501-3.8 4.221-3.579 3.879-8.425 9.321-9.553 14.437-.585 2.652-.514 5.367-.945 8.028-.042.258-.79 2.171-1.053 2.098-1.016-.28-1.976-1.872-2.348-2.543-.749-1.352-7.775-12.689-10.704-9.651-6.274 6.506 8.65 28.68-1.018 31.428-11.747 3.338-8.857.058.974 20.356.919 1.897-6.66-5.416-7.996-6.697-9.866-9.461-6.795-21.165-10.992-31.614-1.282-3.191-3.069-6.091-4.768-9.04-.146-.253-1.493-2.308-1.858-2.267-2.564.286-3.964 7.738-4.192 9.381-1.268 9.118-.949 19.053-1.304 28.368-.116 3.032-.657 5.651-1.299 8.563-.067.3.326 2.811-.436 2.689-1.471-.235-3.333-2.411-4.18-3.328-2.548-2.76-5.77-5.494-7.425-8.577-.243-.453-2.593-5.321-2.882-5.289-2.663.298-3.987 8.323-4.183 9.875-.45 3.555-1.535 6.87-.656 10.636.181.778 2.576 3.215 2.248 3.71-.202.306-2.034-.292-.309 3.005 1.794 3.429 3.732 6.648 5.874 9.955.54.833 2.822 1.917 2.837 2.769.007.358-3.635-1.375-4.026-1.53-4.092-1.617-8.036-3.566-12.204-4.906-.79-.254-2.637-.866-2.611.573.023 1.322 5.032 3.451 6.164 4.237 3.416 2.374 6.405 5.267 9.812 7.635.999.694 3.811 3.425 4.268 4.562.221.549-1.502 2.052-1.651 2.496-.637 1.901-.401 4.626-.365 6.642.097 5.343 4.647 14.655-4.536 10.41-2.565-1.185-2.429-1.121-5.015-2.575-1.67-.939-3.105-1.778-2.286-.627 3.828 5.379 9.079 12.897 13.858 18.013 2.617 2.801 10.28 6.206 11.222 7.355 1.132 1.383-1.099 4.567-1.282 5.697-.33 2.032 3.278 5.314 5.684 6.131 4.28 1.452 11.091-5.176 15.052-5.45 13.816-.956 25.652 1.66 38.773-1.439 3.138-.742 7.453-1.323 9.956-2.817 1.951-1.165-12.985-6.037-14.865-7.22-2.274-1.431-2.147-3.454-.091-4.088 2.706-.834 8.466.194 11.608.555 7.192.825 14.979 1.828 19.758-2.009 1.802-1.447-7.513-6.118-9.241-7.09l-3.183-1.79c-.653-.367-4.269-1.775-3.585-1.852 5.441-.609 12.198-.39 17.514-1.315.46-.08 5.61.38 5.27-.466-.719-1.79-10.512-5.805-12.232-6.388-1.184-.403-2.456-.648-3.536-1.255l-1.469-.826c1.994 1.121 5.895 1.481 8.025 1.578 7.18.324 14.548-.879 21.319-1.887.864-.128 5.467-1.212 4.715-3.084-.187-.467-1.778-.221-2.264-.494-3.762-2.115-6.555-4.353-10.43-6.264-.507-.25-6.079-3.104-6.409-3.925-.416-1.036 2.535-2.173 3.157-2.32 5.75-1.358-24.073-2.164-18.523-3.871 1.699-.522 30.757-5.062 27.599-5.566-7.189-1.15-12.902-1.365-19.415-2.422a84 84 0 0 1-5.242-1.016c-3.25-.739-6.008-.51-8.771-1.271-1.852-.51.837-1.642 2.348-2.272 3.763-1.569 7.121-1.67 9.886-4.166.268-.242 2.067-2.552 1.856-3.078-.545-1.356-15.276-2.023-14.795-2.242 4.122-1.876 12.077-2.188 16.837-2.721 6.65-.744 9.989-3.163 15.192-5.789.744-.375 8.968-3.505 7.559-5.224-2.95-3.599-11.083-2.054-14.809-2.901-1.888-.429-3.774-1.022-5.604-1.684-.642-.232-1.949-.607-1.949-.607s9.034-1.813 11.175-2.223c7.155-1.371 7.249-.787 12.167-3.268.713-.36 4.013-.484 3.547-1.643-.219-.546-3.332-1.874-3.917-2.203-4.134-2.324-9.07-2.668-13.638-3.756-1.545-.368-3.071-.81-4.624-1.133-.061-.012-1.53-.226-1.46-.332.94-1.42 6.323-1.66 8.198-2.237 6.504-2 10.833-5.505 16.199-8.744 1.787-1.078 6.356-3.599 6.313-5.988-.021-1.17-4.278-1.629-4.996-1.586-6.123.365-12.358.837-18.138 2.029-.468.096-7.595.981-7.573.844.321-1.984 6.883-15.774 9.401-20.359 1.558-2.835 1.714-9.428.209-13.177 0 0-5.765 2.269-8.477 4.86" style="fill:#f1a825" transform="matrix(.52162 -2.02728 1.73011 .65812 -765.022 1301.738)"/><path d="M1869.68 88.43c4.04 3.663 22.6 20.259 27.54 24.657.81.733.92.884 1.32 1.335 1.66 1.875 2.97 4.035 4.65 5.888l.07.078c2.23-15.885 3.9-31.594 7.14-47.464 1.68-8.215 9.09-24.803 14.68-3.192 3.9 15.071 11.5 24.793 11.48 39.949-.05 4.65-2.51 15.538-2.5 20.236 0 0 3.15-9.227 5.91-15.318 4.65-10.258 17.1-26.197 17.1-26.197 1.94-.425 4.33 6.59 4.71 8.605.09.496-3.63 50.264-3.63 50.264 1.07-1.742 2.9-8.407 3.86-10.212 5.13-9.704 4.78-17.976 12.24-26.685.25-.294 2.92-2.619 3.33-2.845 3.91-2.158 5.18 7.619 5.6 15.572.77 14.309 5.4 28.042 2.45 43.11-1.92 9.821-5.81 26.252-5.81 26.252 3.88-6.701 3.95-15.53 9.21-21.095.26-.276 2.56-3.114 2.68-3.25.74-.836.96-.14 2 1.319 6.1 8.569 3.01 17.22 6.19 28.176.52 1.787.11 4.33.31 6.375 2.79-5.637 2.08-9.592 4.93-15.635 4.68-9.976 8.24-20.809 12.24-30.802 2.63-6.564 5.73-12.224 8.47-18.946.17-.384.19-.405.29-.565.81-1.176 2.93-.652 2.82 2.17-.3 7.858-1.69 15.677-2.75 23.521-1.51 11.197-3.17 22.4-4.57 33.539 5.1-10.855 8.11-22.582 13.94-33.052.93-1.668 3.03-4.172 4.68-1.485.71 1.152-.08 7.599 1.33 7.718s5.02-6.091 6.49-7.888c3.51-4.289 7.17-8.469 10.86-12.617 2.96-3.322 5.48-7.113 8.69-10.065 3.13-2.871 7.47 2.23 6.01 14.009-1.67 13.468-4.38 26.73-7.99 39.826 0 0 7.59-9.473 9.99-11.113 1.88-1.288 4.88-1.35 5.89 1.044 1.51 3.594.01 8.212-.42 12.221-.82 7.35-8.49 32.926-8.49 32.926 5.18-6.182 13.05-21.044 19-24.541 2.79-1.638 8.03-5.06 10.04.744 4.54 13.279-11.19 52.888-15.19 66.924 1.63 1.423 2.44 2.037 6.42-4.088 5.98-9.205 15.84-26.797 19.12-23.163 4.32 4.78 2.7 10.72 2.27 16.764-.95 13.388-1.08 20.805-4.13 33.833-4.33 18.478-9.53 37.448-13.27 56.022-1.55 7.99 5.12 17.503 3.93 25.988 6.27 8.268 12.71 16.437 19.4 24.443 9.17 10.964 20.78 19.75 30.04 30.685q0-.002-.12-.149c4.49 4.812.1 11.595-6.12 18.67-7.1 8.078-24.49-27.182-37.04-41.025-4.52-6.226-10.85-15.981-15.18-22.353-2.01 1.86-3.8 3.424-6.42 4.477-3.85 1.546-7.3-2.153-10.39-6.047 0 0-12.3 12.77-16.2 15.657-7.86 5.817-15.04 8.61-24 12.261-7.49 3.054-9.75 3.517-17.35 6.299 0 0-4.33 4.761-6.04.166-.71-1.895 6.2-8.71 9.66-12.886 2.39-2.888 4-8.152 4.6-11.662 0 0-12-3.624-13.38-4.011-6.09-1.707-17.75-4.524-20.71-10.145-3.04 2.654-5.86 5.528-9.06 8.028-6.52 5.092-8.83 4.976-14.85 10.909-4.59 4.504-11.17 14.403-15.3 10.727-3.08-2.73 10.45-19.273 12.11-22.107 2.6-4.43-1.16-3.701-1.18-4.208 0 0-3.54.906-6.23 1.587q-1.92.49-3.87.936c-.86.199-1.73.391-2.6.576-3.92.835-8.46 2.328-10.93-1.421-2.65 1.086-5.46 1.635-8.48.885-6.38-1.583-11.93-5.715-17.44-9.021-5.23-3.164-10.61-6.675-13.74-11.797-1.44-2.36-2.63-5.802-.27-7.787 1.08-.914 2.6-1.131 4.04-1.439 5.06-1.085 10.09-1.643 15.06-4.262 4.31-2.267 8.38-4.847 12.7-7.234 1.35-.757 6.55-3.65 6.35-3.717-.12-.041-14.03-5.261-20.05-7.849-15.59-6.696-31.64-12.289-46.36-20.604-5.84-3.296-11.81-7.299-14.86-12.75-1.47-2.618-7.96-3.837-4.31-5.519 4.16-1.915 14.76-5.075 19.32-6.07 10.9-2.378 22.06-.897 34.05 1.482 12.04 2.363 24.67 2.344 35.21-4.397l1.53-.984c2.33-1.499 4.65-3.015 6.94-4.569l.09-.059c-7.84 1.526-15.58 4.29-23.37 5.06-2.2.217-4.62-.137-5.95-2.069-1.84-2.658-1.33-6.101-1.24-9.195.14-5.108 1.32-10.695-1.21-14.153-3.3-4.529-9.6-4.945-14.5-5.58a158 158 0 0 0-4.37-.497c-11.81-1.193-25.74-.974-31.28-10.937-1-1.81-4.07-1.023-3.32-3.024 2.04-5.46 10.91-10.532 15.91-12.402 4.16-1.557 8.98-2.157 12.23-3.864l-1.21-1.222c-5.12-3.051-10.96-4.966-15.53-8.829-8.53-7.196-13.58-18.101-18.72-28.216-2.58-4.817-8.25-10.177-4.4-14.273.21-.234.46-.442.73-.618 3.24-2.124 7.34.852 9.5 1.729 6.46 2.623 14.68-3.042 20.56-5.493 1.08-.461 2.32-1.495 2.32-1.495-1.25-3.772-7.25-17.676-9.05-21.75-10.98-17.859-27.61-58.108-28.91-58.665-4.61-1.976-3.33-12.032.9-10.307 0 0 15.27 7.885 21.16 13.237m70.97 257.955c-2.14 2.883-5.79 4.579-8.98 6.395-7.14 4.101-13.83 8.426-22.52 10.051-1.48.279-3.67.735-3.67.735 4.38 6.628 12.87 10.166 19.8 14.217 2.89 1.673 5.94 3.168 9.3 3.583 0 0 2.51-1.037 4.33-1.699 2.37-.863 5.87-1.152 6.72 2.373.16-.023.31-.049.47-.076 6.84-1.247 13.57-3.275 20.24-5.418 2.49-1.563 4.67-5.237 8.52-4.038 4.71 1.469 2.55 5.155.97 7.519a79 79 0 0 1-2.39 3.356c-3.89 5.243-7.69 10.678-11.45 16.162 0 0 13.12-9.406 18.73-14.556 4.52-4.155 9.04-11.377 14.4-8.454 1.98 1.074 3 3.439 4.2 5.58 0 0 2.23 1.417 3.99 2.104 11.55 4.524 27.73 1.851 28.27 13.291.32 6.793-5.41 12.447-8.83 16.471l1.71-.677c13.9-4.964 25.71-10.063 37.41-20.016 4.54-3.865 6.28-11.605 13.6-11.301 2.77.114 5.06 2.116 6.87 4.509 0 0 3.37-1.47 5.75-3.876-4.23-6.352-8.37-12.743-12.47-19.141-16.05-5.792-48.29-14.162-48.88-14.232-8.32-1.006-20.34-1.339-28.08-1.433-5.44-.067-10.55-.015-15.05.005l-1.82.007m102.39 6.919c2.39 3.313 4.8 6.62 7.22 9.916-.25-5.051-.65-10.175.26-14.907 5.29-27.551 16.14-54.521 17.83-82.728.34-5.652 1.33-11.338.76-16.872-6.24 7.268-10.41 16.183-16.85 23.438-2.06 2.324-5.93 4.881-9.36 1.99-3.73-3.138-1.79-9.828-.09-15.007 2.89-8.786 7.25-17.059 9.67-26.004 2.42-8.922 3.9-18.31 2.48-27.322-4.95 4.528-9.11 9.829-13.5 14.821-2.12 2.383-4.83 4.957-5.99 6.459-1.72 2.248-4.12 5.617-6.71 3.221-1.14 9.075-7.54 18.351-4.68 26.235 4.64 13.2 7.12 27.238 6.72 40.19-.22 7.224-2.73 14.098-1.3 21.41 2.42 12.381 9.23 23.895 13.54 35.16m-217.53-59.233c-.38.099-2.77 1.035-3.14 1.132-1.2.328.03 2.31.03 2.31 1.9 5.622 6.41 8.164 12.24 11.279 14.91 7.968 31.31 13.21 46.54 19.957 4.8 2.128 9.26 5.005 13.64 7.968 3.14 1.026 7.16 2.862 5.71 6.468 0 0 28.74-1.469 43.09-2.664l.38-.032a260 260 0 0 0 5.88-.554l.32-.036c.33-.033.33-.033.67-.064 2.88-.248 5.77-.311 8.65-.309l.58.001c11.35.145 22.75 1.813 34.08 4.646 12.44 3.111 24.79 7.627 36.89 13.074l.04.018.46.209c-11.31-17.789-22.23-35.558-33.16-52.581-4.48-1.145-9.98.737-13.81 2.648-13.48 6.725-25.7 18.596-42.33 15.173-8.74-1.858-27.88-8.944-27.88-8.944-5.66-1.299-26.54-4.844-30.5-5.817m144.17-85.284c.51-1.811 1.16-3.717 1.57-5.544 1.8-8.092 3.92-16.151 4.83-24.406.2-1.581.48-3.167.65-4.767-5.74 5.952-10.58 12.723-14.74 19.892-1.33 2.264-3.09 4.233-4.85 6.165-1.85 2.023-6.09-.269-3.16-4.128 4.05-5.423 5.66-12.481 7.51-18.916a276 276 0 0 0 8.09-38.001c.36-2.562.75-5.194.74-7.72-7.73 13.619-27.19 51.509-27.19 51.509-4.55 9.198-10.44 15.798-13.89 27.643-3.17 10.779-6.24 21.297-4.56 33.569.57 4.124.11 10.622-.6 10.204 3.45 4.953 31.88 45.048 31.88 45.048 4.22 5.826 8.4 11.678 12.57 17.534-3.58-7.705-6-15.628-4.71-23.61 2.37-14.663-.04-30.02-2.11-41.306-.67-3.654-1.94-7.376-2.14-10.645-.5-8.6 5.29-15.901 7.89-24.53M1874.1 243.82c2.04 1.601 4.99 3.021 8.02 3.752 10.19 2.449 20.99 1.375 31.08 4.77 5.57 1.875 10.64 6.437 10.63 13.347-.05 5.077-1.3 10.472-.02 15.177.44 1.592 3.89.221 7.47-.625 8.29-1.976 16.63-3.858 25.06-5.252 0 0 4.52-.455 3.67 2.994-.47 1.898-2.53 3.033-4.32 4.339-9.1 6.644-18.62 13.355-29.37 14.816-14.51 1.972-28.99-4.897-43.34-4.33-4.08.161-8.08.951-12.06 1.923 15.94 1.333 20.61 4.852 35.65 7.738l17.28 3.212c6.34 1.275 7.54.044 13.86 1.402 0 0 4.01.885 7.05 1.572 3.89.877 7.77 1.836 11.66 2.762l.73.174c3.19.791 6.39 1.585 9.58 2.383 6.19 1.55 12.21 3.414 18.62 4.801 18.16 3.81 36.73-18.245 52.01-15.848-9.01-13.965-18.06-27.913-27.13-41.624-16.41-5.928-32.71-11.703-50.54-14.224-15.92-2.252-32.55-1.836-44.36-1.813m150.58-96.831c-2.22 2.313-11.7 12.282-16.49 18.833-1.15 1.581-10.61 10.335-11.78 7.707-.66-1.478-.73-3.179-.8-4.836v-.032c-4.45 9.929-7.93 20.353-12.81 30.022-1.2 2.365-2.86 5.909-5.22 3.935-1.64-1.374-.85-4.172-.46-7.104 2.15-16.271 4.86-32.484 6.93-48.77 0 0-10.92 28.878-17.89 43.19-2.84 5.852-2.86 13.025-6.37 18.197-.83 1.222-2.87 1.045-3.62-1.3-2.92-9.23-.36-20.017-4.17-30.218-.57-1.509-.94-3.152-1.91-4.423-1.49 1.262-2.29 3.488-3.21 5.52-2.43 5.394-2.93 12.114-6.48 18.174-1.36 2.322-2.25 4.911-4.09 3.534-.62-.462-.51-1.546-.53-2.549-.32-12.344 3.54-24.592 4.96-37.367 1.24-11.033.24-19.73-1.43-30.645-.82-5.926.75-11.762-1.81-17.573-.73-1.663-1.49 1.863-2.82 2.95-8.69 7.07-7.76 22.346-12.73 31.726-1.44 2.707-7.57 17.771-9.92 16.239-1.18-.766-.38-9.673.92-14.44 3.88-14.185 4.39-48.216 2.4-51.163 0 0-2.92 4.631-4.98 7.103-7.22 8.807-20.93 43.919-22.72 40.424-1.07-2.094-.19-13.621-.02-16.142.42-6.05 2.65-20.277 2.11-26.249-1.07-12.046-6.03-15.562-8.67-27.109-1.07-4.623-2.67-10.259-5.05-11.627 0 0-3.43 6.484-4.18 10.255-2.32 11.805-1.47 22.536-2.52 34.736-.25 2.617-1.58 10.762-2.6 16.829 2.7 2.921 5.29 5.931 7.76 9.034 11.39 14.243 27.77 23.779 39.83 37.674.57.653 1.12 1.313 1.68 1.98 2.74 3.319 5.16 6.912 7.66 10.452 17.93 25.416 55.64 79.794 55.64 79.794l1.77 2.546c-.04-.206.41-2.044.42-1.966-2.22-10.983-3.65-21.684-.93-33.984 2.24-10.118 6.18-15.83 11.85-25.771 4.49-7.861 5.89-11.769 10.31-19.377 1.13-1.952 5.86-14.331 8.26-18.101a381 381 0 0 1 13.71-20.108m-209.27 27.939c1.55 3.626 4.16 6.764 5.99 10.421 4.99 9.921 10.18 17.087 19.33 22.612 3.79 2.288 7.91 7.372 11.74 9.652 0 0 10.91 7.503-2.95 10.908-6.34 1.557-13.02 3.167-17.87 7.4-.38.334-.75.697-1.05 1.103-.98 1.292-1.36 2.69.25 4.254l1.9-.583c14.96-.91 29.74-1.514 44.71-2.771 2.07-.173 6.53-.623 6.86-.654 3.08-.264 6.15-.318 9.23-.307 24.01.306 72.17 18.261 72.47 18.402-2.52-3.785-13.7-20.269-16.57-24.427l-.27-.38a1330 1330 0 0 0-18.37-25.464l-.4-.537q-.765-1.014-1.53-2.035c-4.65-2.199-9.38-5.177-14.86-7.537-13.32-5.741-27.32-9.325-43.03-9.594-6.74-.116-13-.031-19.21-1.359-8.84-1.886-17.44-4.856-26.15-7.053-2.49.1-4.91-.341-7.17-1.591-.32-.06-2.35-.398-3.05-.46m108.97 21.553c-7.31-9.777-14.81-19.456-24.25-27.105-12.14-9.834-32.11-35.841-42.81-47.468-8.23-8.886-37.78-37.074-43.4-35.282 0 0 7.39 20.24 18.83 42.276 8.54 16.438 22.7 35.316 19.6 39.787-1.43 2.067-9.96 2.358-12.27 3.546-2.35 1.193-4.83 2.364-7.35 3.245l8.25 1.457c7.67 1.351 15.43 3.737 22.92 2.77 1.02-.119 7.14-.24 8.26-.196 17.65.698 34.52 6.764 51.04 16.278.39.227.79.458 1.18.692" style="fill:#500000" transform="matrix(1 0 0 1 -1750.995 0)"/></svg>