<svg xmlns="http://www.w3.org/2000/svg" xml:space="preserve" viewBox="0 0 511.999 511.999"><path d="M430.396 104.696v53.291c0 90.332-69.004 164.846-157.067 173.611v-57.596c55.477-8.421 98.128-56.436 98.128-114.227v-55.079h-34.821v55.079c0 38.529-27.143 70.82-63.306 78.805V104.696h-34.821v133.883c-36.163-7.985-63.306-40.276-63.306-78.805v-55.078H140.38v55.079c0 57.792 42.65 105.807 98.128 114.228v57.596c-88.063-8.765-157.067-83.28-157.067-173.611v-53.292H46.619v53.291c0 109.544 84.597 199.691 191.889 208.569v89.111h34.821v-89.111c107.293-8.878 191.889-99.025 191.889-208.569v-53.291z" style="fill:#f7b239"/><path d="M286.693 455.667h-61.551c-22.115 0-40.042 17.927-40.042 40.042v7.67h141.636v-7.67c-.001-22.115-17.928-40.042-40.043-40.042" style="fill:#f7b239"/><path d="M268.666 455.667h-43.524c-22.115 0-40.042 17.927-40.042 40.042v7.67h43.524v-7.67c0-22.115 17.928-40.042 40.042-40.042" style="fill:#e09b2d"/><path d="M82.441 27.872 63.36 8.791 44.279 27.872c-10.538 10.538-10.538 27.625 0 38.163s27.625 10.538 38.163 0 10.538-27.625-.001-38.163M178.72 27.872 159.638 8.791l-19.081 19.081c-10.538 10.538-10.538 27.625 0 38.163s27.625 10.538 38.163 0 10.538-27.625 0-38.163M371.279 27.872 352.197 8.791l-19.081 19.081c-10.538 10.538-10.538 27.625 0 38.163s27.625 10.538 38.163 0 10.538-27.625 0-38.163M274.999 27.872 255.918 8.791l-19.081 19.081c-10.538 10.538-10.538 27.625 0 38.163s27.625 10.538 38.163 0 10.537-27.625-.001-38.163M467.557 27.872 448.476 8.791l-19.081 19.081c-10.538 10.538-10.538 27.625 0 38.163s27.625 10.538 38.163 0 10.537-27.625-.001-38.163" style="fill:#f95428"/><path d="M430.403 104.696h34.821v34.473h-34.821zM336.641 104.696h34.821v34.473h-34.821zM238.514 104.696h34.821v34.473h-34.821zM140.388 104.696h34.821v34.473h-34.821zM46.626 104.696h34.821v34.473H46.626z" style="fill:#ccc"/><path d="M444.581 249.088a8.707 8.707 0 0 0-11.792 3.54c-15.61 29.007-38.38 54.013-65.848 72.313-28.086 18.714-60.673 30.073-94.238 32.85a8.705 8.705 0 0 0-7.988 8.676v80.406h-17.411v-18.779c0-4.808-3.896-8.705-8.705-8.705s-8.705 3.898-8.705 8.705v18.779h-4.66c-26.88 0-48.748 21.868-48.748 48.749v7.67a8.704 8.704 0 0 0 8.705 8.705h141.635a8.705 8.705 0 0 0 8.705-8.705v-7.67c0-26.88-21.868-48.749-48.748-48.749h-4.659v-72.542c33.663-4.058 66.17-16.046 94.47-34.901 29.835-19.878 54.568-47.041 71.526-78.552 2.279-4.231.694-9.511-3.539-11.79M318.103 494.589h-124.19c.548-16.804 14.387-30.303 31.319-30.303h61.55c16.934 0 30.773 13.499 31.321 30.303M63.45 82.558c9.533 0 18.496-3.712 25.237-10.453 13.915-13.916 13.915-36.558 0-50.474L69.607 2.55a8.706 8.706 0 0 0-12.312 0L38.214 21.63c-6.743 6.741-10.455 15.703-10.455 25.237s3.712 18.497 10.453 25.237c6.742 6.742 15.704 10.454 25.238 10.454M50.524 33.941 63.45 21.016l12.926 12.926c3.453 3.453 5.354 8.043 5.354 12.926s-1.901 9.474-5.356 12.926a18.16 18.16 0 0 1-12.925 5.354 18.16 18.16 0 0 1-12.927-5.354 18.16 18.16 0 0 1-5.353-12.926 18.17 18.17 0 0 1 5.355-12.927M159.729 82.558c9.534 0 18.497-3.712 25.237-10.453 13.915-13.916 13.915-36.558 0-50.474L165.885 2.55a8.706 8.706 0 0 0-12.312 0l-19.082 19.081c-13.915 13.916-13.915 36.558 0 50.474 6.742 6.741 15.705 10.453 25.238 10.453m-12.925-48.617 12.926-12.926 12.926 12.926c7.128 7.128 7.128 18.723 0 25.851a18.16 18.16 0 0 1-12.926 5.354 18.16 18.16 0 0 1-12.926-5.354c-7.128-7.126-7.128-18.723 0-25.851M352.287 82.558c9.534 0 18.497-3.712 25.237-10.453 13.915-13.916 13.915-36.558 0-50.474L358.444 2.55a8.706 8.706 0 0 0-12.312 0l-19.081 19.081c-13.915 13.916-13.915 36.558 0 50.474 6.739 6.741 15.702 10.453 25.236 10.453m-12.925-48.617 12.926-12.926 12.926 12.926c7.128 7.128 7.128 18.723 0 25.851-3.453 3.453-8.043 5.354-12.926 5.354s-9.473-1.901-12.926-5.354c-7.127-7.126-7.127-18.723 0-25.851M256.009 82.558c9.534 0 18.497-3.712 25.237-10.453 13.915-13.916 13.915-36.558 0-50.474L262.164 2.55a8.706 8.706 0 0 0-12.312 0l-19.081 19.081c-13.915 13.916-13.915 36.558 0 50.474 6.74 6.741 15.703 10.453 25.238 10.453m-12.926-48.617 12.926-12.926 12.926 12.926c7.128 7.128 7.128 18.723 0 25.851a18.16 18.16 0 0 1-12.926 5.354 18.16 18.16 0 0 1-12.926-5.354c-7.128-7.126-7.128-18.723 0-25.851M448.566 82.558c9.534 0 18.497-3.712 25.237-10.453 13.915-13.916 13.915-36.558 0-50.474L454.722 2.55a8.706 8.706 0 0 0-12.312 0l-19.08 19.081c-13.915 13.916-13.915 36.558 0 50.474 6.74 6.741 15.702 10.453 25.236 10.453M435.64 33.941l12.926-12.926 12.926 12.926c7.128 7.128 7.128 18.723 0 25.851a18.16 18.16 0 0 1-12.926 5.354 18.16 18.16 0 0 1-12.926-5.354c-7.127-7.126-7.127-18.723 0-25.851"/><path d="M475.386 130.374h-1.37v-25.768a8.704 8.704 0 0 0-8.705-8.705H430.49a8.705 8.705 0 0 0-8.705 8.705v25.768h-.547c-4.809 0-8.705 3.898-8.705 8.705s3.896 8.705 8.705 8.705h.547v10.11c0 41.321-15.356 80.933-43.24 111.537-25.511 28.002-59.46 46.308-96.417 52.183v-40.447c26.166-5.633 49.998-19.708 67.734-40.149 19.599-22.586 30.392-51.468 30.392-81.325v-11.909h1.114c4.809 0 8.705-3.898 8.705-8.705s-3.896-8.705-8.705-8.705h-1.114v-25.768a8.705 8.705 0 0 0-8.705-8.705h-34.821a8.705 8.705 0 0 0-8.705 8.705v25.768h-.801c-4.809 0-8.705 3.898-8.705 8.705s3.896 8.705 8.705 8.705h.801v11.909c0 29.775-18.754 56.437-45.895 67.079v-78.988h.952c4.809 0 8.705-3.898 8.705-8.705s-3.896-8.705-8.705-8.705h-.952v-25.768a8.704 8.704 0 0 0-8.705-8.705h-34.821a8.705 8.705 0 0 0-8.705 8.705v25.768h-.963c-4.809 0-8.705 3.898-8.705 8.705s3.896 8.705 8.705 8.705h.963v78.988c-27.141-10.64-45.895-37.303-45.895-67.08v-11.909h1.056c4.809 0 8.705-3.898 8.705-8.705s-3.896-8.705-8.705-8.705h-1.056v-25.768a8.705 8.705 0 0 0-8.705-8.705h-34.821a8.705 8.705 0 0 0-8.705 8.705v25.768h-.846a8.705 8.705 0 0 0 0 17.41h.846v11.909a124.1 124.1 0 0 0 30.389 81.33c17.735 20.438 41.569 34.513 67.738 40.146v40.447c-36.958-5.877-70.905-24.182-96.417-52.183-27.883-30.606-43.24-70.217-43.24-111.537v-10.11h.952a8.705 8.705 0 0 0 0-17.41h-.952v-25.768a8.705 8.705 0 0 0-8.705-8.705H46.713a8.705 8.705 0 0 0-8.705 8.705v25.768h-.963a8.705 8.705 0 0 0 0 17.41h.963v10.11c0 54.981 20.607 107.525 58.024 147.953 35.373 38.219 82.654 62.349 133.865 68.494v24.738c0 4.808 3.896 8.705 8.705 8.705s8.705-3.898 8.705-8.705v-32.604a8.707 8.707 0 0 0-7.988-8.676c-49.92-4.131-96.268-26.781-130.509-63.776-34.43-37.201-53.392-85.546-53.392-136.127v-10.11h17.411v10.11c0 45.668 16.968 89.444 47.781 123.263 30.6 33.587 72.199 54.548 117.131 59.019a8.7 8.7 0 0 0 9.566-8.663V273.92a8.706 8.706 0 0 0-7.398-8.607c-24.974-3.793-47.916-16.47-64.601-35.699a106.7 106.7 0 0 1-26.128-69.92v-11.909h17.411v11.909c0 20.46 7.119 40.472 20.044 56.349 12.733 15.639 30.522 26.633 50.089 30.953a8.72 8.72 0 0 0 7.329-1.714 8.7 8.7 0 0 0 3.253-6.787v-90.71h17.411v90.71a8.71 8.71 0 0 0 10.583 8.501c19.564-4.321 37.352-15.313 50.085-30.953 12.929-15.879 20.048-35.89 20.048-56.349v-11.909h17.411v11.909c0 25.666-9.28 50.494-26.132 69.915-16.686 19.231-39.628 31.911-64.596 35.703a8.706 8.706 0 0 0-7.398 8.607v57.594a8.71 8.71 0 0 0 2.862 6.454 8.7 8.7 0 0 0 6.704 2.209c44.932-4.471 86.531-25.431 117.131-59.019 30.812-33.818 47.781-77.595 47.781-123.263v-10.11h17.411v10.11c0 23.288-3.97 46.106-11.8 67.816-1.631 4.522.714 9.511 5.237 11.143 4.517 1.631 9.511-.713 11.143-5.236 8.514-23.61 12.832-48.413 12.832-73.723v-10.11h1.37a8.705 8.705 0 1 0-.003-17.41m-419.969 0v-17.062h17.411v17.062zm93.763 0v-17.062h17.411v17.062zm98.127 0v-17.062h17.411v17.062zm98.126 0v-17.062h17.411v17.062zm93.762 0v-17.062h17.411v17.062z"/></svg>