<svg xmlns="http://www.w3.org/2000/svg" xml:space="preserve" width="800" height="800" viewBox="0 0 100 100"><linearGradient id="a" x1="53.317" x2="53.317" y1="89.7" y2="17.499" gradientUnits="userSpaceOnUse"><stop offset="0" style="stop-color:#f6921e"/><stop offset=".344" style="stop-color:#f7951d"/><stop offset=".598" style="stop-color:#f89e1a"/><stop offset=".823" style="stop-color:#fbae14"/><stop offset="1" style="stop-color:#ffc10e"/></linearGradient><path fill="url(#a)" d="M64.9 33c-1 0-1.9.1-2.8.2-2.7-1.6-5.8-2.5-9.1-2.5s-6.3-.1-9 1.4c-.8-.1-1.5.9-2.2.9C29 33 18.7 43.6 18.7 56.8S29 80.6 41.8 80.6h1.4c2.8 1.8 6.2 2.9 9.8 2.9s3-1.1 5.9-2.9c.7.1 5.4.1 6.1.1 12.6-.1 23-10.8 23-23.9S77.6 33 64.9 33"/><path fill="#8BC53F" d="M50.2 29.7h1.1c.4-8.5 5.7-9.8 7.7-11.3.7-.5 1.1-1.5.7-2.3q-.45-.75-1.2-.9c-.6-.2-1.3.1-1.8.5-8.4 5.8-7.7 12-7.6 14.1.3-.1.7-.1 1.1-.1"/><path fill="#231F20" d="M48.8 32.2c3.2 0 6.2.8 8.8 2.3.9-.1 1.8-.2 2.7-.2 12.3 0 22.3 10 22.3 22.2 0 12.3-10 22.3-22.3 22.3-.7 0-1.4 0-2-.1-2.8 1.7-6 2.7-9.5 2.7-3.4 0-6.7-1-9.4-2.7h-1.3c-12.3 0-22.3-10-22.3-22.3s10-22.2 22.3-22.2c.7 0 1.4 0 2.1.1 2.6-1.3 5.5-2.1 8.6-2.1m0-3c-3.2 0-6.4.7-9.3 2.2h-1.4c-13.9 0-25.3 11.3-25.3 25.2s11.3 25.3 25.3 25.3h.6c3.1 1.7 6.6 2.6 10.1 2.6 3.6 0 7.1-.9 10.2-2.7h1.3c13.9 0 25.2-11.3 25.2-25.3S74.3 31.3 60.4 31.3c-.7 0-1.4 0-2.1.1-3-1.5-6.2-2.2-9.5-2.2"/><path fill="#231F20" d="M56.2 15.5c.1 0 .3 0 .4.1.4.1.9.4 1.1.9.4.7.1 1.7-.6 2.2-1.9 1.4-6.8 2.6-7.2 10.6h-2.1c-.1-2-.7-7.8 7.1-13.2.4-.4.8-.6 1.3-.6m0-3c-1 0-2 .3-3 1-9 6.2-8.6 13.3-8.4 15.6v.2l.2 3 3-.2h1.8l3 .2.2-3c.3-5 2.6-6.3 4.6-7.4.5-.3 1-.5 1.4-.8 1.9-1.4 2.6-3.9 1.6-6-.6-1.1-1.6-2-2.9-2.4-.6-.1-1.1-.2-1.5-.2"/><g fill="#231F20"><path d="M36.5 43.1c-.2 0-.3 0-.5-.1-.5-.3-.6-.9-.4-1.4 1.5-2.6 2.9-4.2 2.9-4.3.4-.4 1-.5 1.4-.1s.5 1 .1 1.4c0 0-1.3 1.5-2.7 4-.1.3-.4.5-.8.5"/><path d="M36 42.9c-.5-.3-.6-.9-.4-1.4.3-.5.9-.6 1.4-.4.5.3.6.9.4 1.4-.2.3-.5.5-.9.5-.2.1-.3 0-.5-.1M34 67.4c-.4 0-.8-.2-.9-.6-1.3-2.9-1.9-6-2-9.2 0-.6.4-1 1-1 .5 0 1 .4 1 1q.15 4.35 1.8 8.4c0 .1.1.3.1.4 0 .4-.2.8-.6.9-.1 0-.2.1-.4.1M32.3 55h-.1c-.5-.1-.9-.5-.9-1v-.1c.4-3 1.3-6 2.6-9 .2-.5.8-.7 1.3-.5.3.1.4.3.5.6s.1.5 0 .8q-1.95 4.2-2.4 8.4c0 .4-.5.8-1 .8M38.6 74.7c-.3 0-.6-.1-.8-.4-1.1-1.3-2.2-2.8-3-4.2-.3-.5-.1-1.1.3-1.4.5-.3 1.1-.1 1.4.3.8 1.3 1.8 2.6 2.8 3.9.4.4.3 1.1-.1 1.4-.1.3-.4.4-.6.4"/></g><g fill="#231F20"><path d="M61.2 43.1c-.3 0-.7-.2-.9-.5-1.4-2.5-2.7-3.9-2.7-4-.4-.4-.3-1 .1-1.4s1-.3 1.4.1c.1.1 1.4 1.6 2.9 4.3.3.5.1 1.1-.4 1.4 0 0-.2.1-.4.1"/><path d="M60.4 42.6c-.3-.5-.1-1.1.4-1.4s1.1-.1 1.4.4.1 1.1-.4 1.4c-.2.1-.3.1-.5.1-.4 0-.7-.2-.9-.5M63.7 67.4c-.1 0-.3 0-.4-.1q-.6-.3-.6-.9c0-.1 0-.3.1-.4q1.65-4.05 1.8-8.4c0-.5.5-1 1-1 .3 0 .5.1.7.3s.3.4.3.7c-.1 3.2-.7 6.2-2 9.2-.1.3-.5.6-.9.6M65.4 55c-.5 0-.9-.4-1-.9q-.6-4.2-2.4-8.4v-.1c-.2-.5 0-1 .5-1.3.5-.2 1.1 0 1.3.5 1.4 3 2.2 6 2.6 9v.1c0 .5-.4.9-.9 1 0 .1 0 .1-.1.1M59.1 74.7c-.2 0-.5-.1-.6-.2-.4-.4-.5-1-.1-1.4 1.1-1.3 2-2.6 2.8-3.9.3-.5.9-.6 1.4-.3s.6.9.3 1.4q-1.35 2.1-3 4.2c-.2 0-.5.2-.8.2"/></g><g fill="#FFF100"><path d="M43.8 43.9c-3.9 0-7.2-2.1-9.1-5.2-3.4 1.3-5.9 4.2-6.6 7.8 1.9 2.7 5 4.5 8.6 4.5 4.8 0 8.8-3.2 10.1-7.5-1 .2-2 .4-3 .4M56.7 43.9c3.9 0 7.2-2.1 9.1-5.2 3.4 1.3 5.9 4.2 6.6 7.8-1.9 2.7-5 4.5-8.6 4.5-4.8 0-8.8-3.2-10.1-7.5.9.2 1.9.4 3 .4"/></g><path fill="#FFF100" d="M49.2 68.1C37.8 68.1 28 62.3 23.5 54c.7 11.6 12 20.9 25.7 20.9 13.8 0 25-9.3 25.8-20.9-4.5 8.3-14.4 14.1-25.8 14.1"/><g fill="#231F20"><path d="M35.7 52.4c-3.9 0-7.6-1.9-9.8-5.1-.2-.3-.3-.7-.2-1.1.8-4 3.7-7.5 7.6-8.9.7-.3 1.5 0 1.8.6 1.6 2.8 4.6 4.5 7.8 4.5.9 0 1.7-.1 2.6-.4.5-.2 1.1 0 1.5.4s.5 1 .4 1.5c-1.7 5-6.4 8.5-11.7 8.5m-6.9-6.3c1.7 2.1 4.3 3.3 7 3.3 3.1 0 5.9-1.6 7.5-4.1-3.9.2-7.7-1.7-10-4.8-2.3 1.2-3.9 3.2-4.5 5.6M62.7 52.4a12 12 0 0 1-11.5-8.6c-.2-.5 0-1.1.4-1.5s1-.5 1.5-.4c.8.2 1.7.4 2.6.4 3.2 0 6.1-1.7 7.8-4.5.4-.6 1.1-.9 1.8-.6 3.9 1.5 6.8 4.9 7.6 8.9.1.4 0 .8-.2 1.1-2.4 3.3-6.1 5.2-10 5.2m-7.5-7c1.6 2.5 4.5 4.1 7.5 4.1 2.7 0 5.3-1.2 7-3.3-.7-2.4-2.3-4.4-4.5-5.6-2.3 3.1-6.1 4.9-10 4.8"/></g><path fill="#231F20" d="M75 54c-.7 11.6-12 20.9-25.8 20.9s-25-9.3-25.7-20.9c4.5 8.3 14.3 14.1 25.7 14.1S70.5 62.3 75 54m0-3h-.3c-.5.1-1 .3-1.4.6-.2.2-.5.4-.6.6-.1.1-.2.3-.3.4C68.3 60.2 59.2 65 49.3 65s-19-4.9-23.1-12.5c-.5-1-1.6-1.6-2.6-1.6-.3 0-.6 0-.8.1-1.4.4-2.3 1.7-2.2 3.1.8 13.3 13.4 23.7 28.7 23.7 15.2 0 27.8-10.3 28.7-23.6v-.3c0-1.6-1.3-2.9-2.9-3 0 .1-.1.1-.1.1"/></svg>