<svg xmlns="http://www.w3.org/2000/svg" xml:space="preserve" width="800" height="800" viewBox="0 0 512 512"><circle cx="256" cy="85.333" r="62.061" style="fill:#e07188"/><path d="M318.061 85.333c0-34.273-27.785-62.061-62.061-62.061v124.121c34.276-.001 62.061-27.785 62.061-62.06" style="fill:#dc4161"/><path d="M256 170.667c-47.054 0-85.333-38.281-85.333-85.333S208.946 0 256 0c47.051 0 85.333 38.281 85.333 85.333S303.051 170.667 256 170.667m0-124.122c-21.388 0-38.788 17.4-38.788 38.788s17.4 38.788 38.788 38.788 38.788-17.4 38.788-38.788-17.4-38.788-38.788-38.788" style="fill:#f4d853"/><path d="M341.333 85.333C341.333 38.281 303.054 0 256 0v46.545c21.388 0 38.788 17.4 38.788 38.788s-17.4 38.786-38.788 38.788v46.545c47.054-.001 85.333-38.28 85.333-85.333" style="fill:#e9a440"/><circle cx="256" cy="426.667" r="62.061" style="fill:#e07188"/><path d="M256 364.606v124.121c34.276 0 62.061-27.786 62.061-62.061 0-34.272-27.785-62.058-62.061-62.06" style="fill:#dc4161"/><path d="M256 512c-47.054 0-85.333-38.281-85.333-85.333s38.279-85.333 85.333-85.333c47.051 0 85.333 38.281 85.333 85.333S303.051 512 256 512m0-124.121c-21.388 0-38.788 17.4-38.788 38.788s17.4 38.788 38.788 38.788 38.788-17.4 38.788-38.788-17.4-38.788-38.788-38.788" style="fill:#f4d853"/><path d="M256 341.333v46.545c21.388.002 38.788 17.4 38.788 38.788s-17.4 38.788-38.788 38.788V512c47.054 0 85.333-38.281 85.333-85.333S303.054 341.335 256 341.333" style="fill:#e9a440"/><circle cx="426.667" cy="256" r="62.061" style="fill:#dc4161"/><path d="M426.667 341.333c-47.054 0-85.333-38.281-85.333-85.333s38.279-85.333 85.333-85.333c47.051 0 85.333 38.28 85.333 85.333s-38.282 85.333-85.333 85.333m0-124.121c-21.388 0-38.788 17.4-38.788 38.788s17.4 38.788 38.788 38.788 38.788-17.4 38.788-38.788-17.401-38.788-38.788-38.788" style="fill:#e9a440"/><circle cx="85.333" cy="256" r="62.061" style="fill:#e07188"/><path d="M85.333 341.333C38.279 341.333 0 303.053 0 256s38.279-85.333 85.333-85.333c47.051 0 85.333 38.281 85.333 85.333s-38.281 85.333-85.333 85.333m0-124.121c-21.388 0-38.788 17.4-38.788 38.788s17.4 38.788 38.788 38.788 38.788-17.4 38.788-38.788-17.4-38.788-38.788-38.788" style="fill:#f4d853"/><circle cx="376.677" cy="135.323" r="62.061" style="fill:#e9a440"/><path d="M376.678 220.655c-22.79 0-44.221-8.876-60.34-24.992-33.272-33.274-33.269-87.411 0-120.68 16.119-16.119 37.545-24.995 60.34-24.995 22.793 0 44.224 8.876 60.34 24.995 33.272 33.272 33.272 87.408 0 120.68-16.115 16.116-37.545 24.992-60.34 24.992m0-124.123c-10.361 0-20.1 4.035-27.428 11.362-15.124 15.123-15.124 39.73 0 54.855 7.325 7.325 17.067 11.359 27.428 11.359s20.103-4.034 27.428-11.36c15.124-15.123 15.124-39.731 0-54.854-7.328-7.326-17.067-11.362-27.428-11.362" style="fill:#668e2f"/><circle cx="135.323" cy="376.677" r="62.061" style="fill:#f4d853"/><path d="M135.322 462.013c-22.795 0-44.221-8.876-60.34-24.993s-24.993-37.548-24.993-60.342c0-22.792 8.876-44.221 24.993-60.338s37.545-24.993 60.34-24.993c22.793 0 44.224 8.876 60.34 24.993 33.272 33.272 33.272 87.409 0 120.68-16.116 16.117-37.547 24.993-60.34 24.993m0-124.122c-10.361 0-20.1 4.034-27.425 11.36-7.328 7.328-11.363 17.068-11.363 27.429s4.034 20.101 11.36 27.428c7.328 7.326 17.067 11.362 27.428 11.362s20.103-4.035 27.428-11.36c15.124-15.124 15.124-39.731 0-54.855-7.325-7.329-17.069-11.364-27.428-11.364" style="fill:#7aa937"/><circle cx="376.677" cy="376.677" r="62.061" style="fill:#e9a440"/><path d="M376.678 462.013c-22.79 0-44.221-8.876-60.34-24.992-33.269-33.271-33.269-87.408-.003-120.68 16.122-16.119 37.548-24.993 60.343-24.993 22.793 0 44.221 8.876 60.34 24.992 33.269 33.272 33.269 87.408.003 120.68-16.118 16.117-37.548 24.993-60.343 24.993m0-124.121c-10.361 0-20.103 4.035-27.428 11.36-15.121 15.123-15.121 39.731 0 54.855 7.328 7.325 17.067 11.36 27.428 11.36s20.103-4.034 27.428-11.36c15.121-15.124 15.124-39.733 0-54.855-7.325-7.326-17.067-11.36-27.428-11.36" style="fill:#668e2f"/><circle cx="135.323" cy="135.323" r="62.061" style="fill:#f4d853"/><path d="M135.322 220.655c-22.795 0-44.224-8.876-60.34-24.993-16.119-16.117-24.993-37.547-24.993-60.338 0-22.793 8.876-44.223 24.993-60.342 16.119-16.117 37.545-24.995 60.34-24.995 22.793 0 44.224 8.878 60.34 24.995 33.272 33.272 33.272 87.408 0 120.68-16.119 16.117-37.547 24.993-60.34 24.993m0-124.123c-10.361 0-20.1 4.035-27.428 11.362s-11.36 17.067-11.36 27.428c0 10.359 4.035 20.1 11.36 27.428 7.328 7.326 17.067 11.36 27.428 11.36s20.103-4.034 27.428-11.36c15.124-15.123 15.124-39.731 0-54.854-7.329-7.328-17.069-11.364-27.428-11.364" style="fill:#7aa937"/><path d="M332.794 332.795c-42.409 42.415-111.175 42.415-153.588 0-42.415-42.412-42.415-111.178 0-153.591 42.412-42.414 111.178-42.415 153.588 0 42.418 42.413 42.418 111.179 0 153.591" style="fill:#8cb7e8"/><path d="M332.794 179.205c-21.203-21.206-48.997-31.811-76.794-31.811v217.214c27.797 0 55.591-10.605 76.794-31.812 42.418-42.413 42.418-111.179 0-153.591" style="fill:#6398de"/><path d="M256 387.88c-35.227 0-68.343-13.719-93.252-38.63-24.908-24.906-38.627-58.024-38.627-93.249 0-35.227 13.718-68.344 38.627-93.252s58.027-38.627 93.254-38.627c35.224 0 68.343 13.719 93.249 38.628 24.91 24.905 38.628 58.022 38.628 93.251 0 35.226-13.719 68.344-38.627 93.252-24.906 24.909-58.025 38.627-93.252 38.627m.003-217.212c-22.793 0-44.224 8.876-60.343 24.993-16.117 16.117-24.993 37.547-24.993 60.34 0 22.792 8.876 44.221 24.993 60.338 16.119 16.12 37.548 24.996 60.34 24.996s44.221-8.876 60.337-24.995c16.122-16.119 24.996-37.547 24.996-60.34s-8.876-44.221-24.993-60.338c-16.119-16.119-37.547-24.994-60.337-24.994" style="fill:#e07188"/><path d="M255.994 279.267c-6.13 0-12.119-2.482-16.449-6.811-4.343-4.329-6.824-10.333-6.824-16.462 0-6.111 2.482-12.117 6.824-16.446a23.36 23.36 0 0 1 16.449-6.827c6.127 0 12.13 2.482 16.46 6.827 4.327 4.329 6.813 10.333 6.813 16.446 0 6.128-2.486 12.133-6.813 16.462-4.33 4.328-10.333 6.811-16.46 6.811" style="fill:#f4d853"/><path d="M349.252 162.749c-24.906-24.91-58.024-38.628-93.249-38.628H256v46.545h.003c22.79 0 44.218 8.876 60.337 24.995 16.117 16.119 24.993 37.547 24.993 60.34 0 22.792-8.876 44.221-24.996 60.34-16.116 16.119-37.542 24.995-60.337 24.995v46.545c35.227 0 68.346-13.718 93.252-38.628 24.908-24.91 38.627-58.027 38.627-93.252 0-35.228-13.719-68.345-38.627-93.252" style="fill:#dc4161"/><path d="M279.267 255.994c0-6.111-2.486-12.117-6.813-16.446-4.327-4.343-10.33-6.825-16.454-6.827v46.545c6.124-.003 12.127-2.484 16.454-6.811 4.329-4.328 6.813-10.333 6.813-16.461" style="fill:#e9a440"/></svg>