<svg xmlns="http://www.w3.org/2000/svg" xml:space="preserve" width="800" height="800" viewBox="0 0 512 512"><path d="M512 256c0-9.217-7.479-16.696-16.696-16.696h-26.478l32.718-32.718c6.521-6.521 6.521-17.087 0-23.609s-17.087-6.521-23.609 0l-56.327 56.327h-83.813c-2.168-10.642-6.39-20.536-12.197-29.295l59.303-59.303h79.663c9.217 0 16.696-7.479 16.696-16.696s-7.479-16.696-16.696-16.696h-46.271l18.728-18.728c6.521-6.521 6.521-17.087 0-23.609s-17.087-6.521-23.609 0l-18.727 18.728v-46.27c0-9.217-7.479-16.696-16.696-16.696s-16.696 7.479-16.696 16.696v79.663L301.991 186.4c-8.759-5.807-18.652-10.027-29.295-12.197V90.391l56.326-56.326c6.521-6.521 6.521-17.087 0-23.609s-17.087-6.521-23.609 0l-32.717 32.717V16.696C272.696 7.479 265.217 0 256 0s-16.696 7.479-16.696 16.696v26.478l-32.718-32.717c-6.521-6.521-17.087-6.521-23.609 0s-6.521 17.087 0 23.609l56.327 56.326v83.813c-10.642 2.168-20.536 6.39-29.295 12.197l-59.303-59.303V47.435c0-9.217-7.479-16.696-16.696-16.696s-16.696 7.479-16.696 16.696v46.271L98.587 74.978c-6.521-6.521-17.087-6.521-23.609 0s-6.521 17.087 0 23.609l18.728 18.728H47.435c-9.217 0-16.696 7.479-16.696 16.696s7.479 16.696 16.696 16.696h79.663l59.303 59.303c-5.807 8.759-10.027 18.652-12.197 29.295H90.391l-56.326-56.326c-6.521-6.521-17.087-6.521-23.609 0s-6.521 17.087 0 23.609l32.717 32.717H16.696C7.479 239.304 0 246.783 0 256s7.479 16.696 16.696 16.696h26.478l-32.717 32.718c-6.521 6.521-6.521 17.087 0 23.609 3.26 3.26 7.532 4.891 11.804 4.891s8.544-1.631 11.804-4.892l56.327-56.326h83.813c2.168 10.642 6.39 20.536 12.197 29.295l-59.303 59.303H47.435c-9.217 0-16.696 7.479-16.696 16.696s7.479 16.696 16.696 16.696h46.271l-18.728 18.728c-6.521 6.521-6.521 17.087 0 23.609 3.261 3.261 7.533 4.892 11.804 4.892s8.544-1.631 11.804-4.892l18.728-18.728v46.271c0 9.217 7.479 16.696 16.696 16.696s16.696-7.479 16.696-16.696v-79.663l59.303-59.303c8.759 5.807 18.652 10.027 29.295 12.197v83.813l-56.326 56.326c-6.521 6.521-6.521 17.087 0 23.609s17.087 6.521 23.609 0l32.718-32.718v26.478c0 9.217 7.479 16.696 16.696 16.696s16.696-7.479 16.696-16.696v-26.478l32.718 32.718c3.261 3.261 7.533 4.892 11.804 4.892s8.544-1.631 11.804-4.892c6.521-6.521 6.521-17.087 0-23.609l-56.326-56.327v-83.813c10.642-2.168 20.536-6.39 29.295-12.197l59.303 59.303v79.663c0 9.217 7.479 16.696 16.696 16.696s16.696-7.479 16.696-16.696v-46.271l18.728 18.728c3.261 3.261 7.533 4.892 11.804 4.892s8.544-1.631 11.804-4.892c6.521-6.521 6.521-17.087 0-23.609l-18.727-18.727h46.271c9.217 0 16.696-7.479 16.696-16.696s-7.479-16.696-16.696-16.696h-79.663L325.6 301.991c5.807-8.759 10.027-18.652 12.197-29.295h83.813l56.326 56.326c3.261 3.261 7.533 4.892 11.804 4.892s8.544-1.631 11.804-4.892c6.521-6.521 6.521-17.087 0-23.609l-32.717-32.717h26.478c9.216 0 16.695-7.479 16.695-16.696m-256 50.087c-27.619 0-50.087-22.468-50.087-50.087s22.468-50.087 50.087-50.087 50.087 22.468 50.087 50.087-22.468 50.087-50.087 50.087" style="fill:#9df"/><path d="M306.087 256c0 27.619-22.468 50.087-50.087 50.087V512c9.217 0 16.696-7.479 16.696-16.696v-26.478l32.718 32.718c3.261 3.261 7.533 4.892 11.804 4.892s8.544-1.631 11.804-4.892c6.521-6.521 6.521-17.087 0-23.609l-56.326-56.327v-83.813c10.642-2.168 20.536-6.39 29.295-12.197l59.303 59.303v79.663c0 9.217 7.479 16.696 16.696 16.696s16.696-7.479 16.696-16.696v-46.271l18.728 18.728c3.261 3.261 7.533 4.892 11.804 4.892s8.544-1.631 11.804-4.892c6.521-6.521 6.521-17.087 0-23.609l-18.727-18.727h46.271c9.217 0 16.696-7.479 16.696-16.696s-7.479-16.696-16.696-16.696h-79.663L325.6 301.991c5.807-8.759 10.027-18.652 12.197-29.295h83.813l56.326 56.326c3.261 3.261 7.533 4.892 11.804 4.892s8.544-1.631 11.804-4.892c6.521-6.521 6.521-17.087 0-23.609l-32.717-32.717h26.478c9.217 0 16.696-7.479 16.696-16.696s-7.479-16.696-16.696-16.696h-26.478l32.718-32.718c6.521-6.521 6.521-17.087 0-23.609s-17.087-6.521-23.609 0l-56.327 56.327h-83.813c-2.168-10.642-6.39-20.536-12.197-29.295l59.303-59.303h79.663c9.217 0 16.696-7.479 16.696-16.696s-7.479-16.696-16.696-16.696h-46.271l18.728-18.728c6.521-6.521 6.521-17.087 0-23.609s-17.087-6.521-23.609 0l-18.727 18.728v-46.27c0-9.217-7.479-16.696-16.696-16.696s-16.696 7.479-16.696 16.696v79.663L301.991 186.4c-8.759-5.807-18.652-10.027-29.295-12.197V90.391l56.326-56.326c6.521-6.521 6.521-17.087 0-23.609s-17.087-6.521-23.609 0l-32.717 32.717V16.696C272.696 7.479 265.217 0 256 0v205.913c27.619 0 50.087 22.468 50.087 50.087" style="fill:#73c0e6"/></svg>