<svg xmlns="http://www.w3.org/2000/svg" xml:space="preserve" width="800" height="800" viewBox="0 0 512.001 512.001"><path d="M251.138 110.305c-9.232 0-16.722-7.49-16.722-16.722V26.696c0-9.232 7.49-16.722 16.722-16.722s16.722 7.49 16.722 16.722v66.888c0 9.231-7.49 16.721-16.722 16.721M52.354 162.942c-2.842 0-5.716-.719-8.35-2.243L8.971 140.471c-8.002-4.616-10.734-14.839-6.118-22.84 4.616-8.013 14.849-10.734 22.84-6.118l35.033 20.228c8.002 4.616 10.734 14.839 6.118 22.84-3.091 5.367-8.72 8.361-14.49 8.361" style="fill:#36d9d9"/><path d="M495.267 418.658c-2.842 0-5.716-.719-8.35-2.243l-70.666-40.804c-8.002-4.616-10.734-14.839-6.118-22.84 4.605-8.002 14.86-10.734 22.84-6.118l70.666 40.804c8.002 4.616 10.734 14.839 6.118 22.84-3.092 5.368-8.721 8.361-14.49 8.361" style="fill:#43bfbf"/><path d="M133.764 480.266c-2.842 0-5.716-.719-8.35-2.243-8.002-4.616-10.734-14.839-6.118-22.84l23.657-40.978c4.605-8.002 14.86-10.734 22.84-6.118 8.002 4.616 10.734 14.839 6.118 22.84l-23.657 40.978c-3.091 5.367-8.72 8.361-14.49 8.361" style="fill:#36d9d9"/><path d="M351.149 103.74c-2.842 0-5.716-.719-8.35-2.243-8.002-4.616-10.734-14.839-6.118-22.84l32.073-55.543c4.616-8.012 14.849-10.734 22.84-6.118 8.002 4.616 10.734 14.839 6.118 22.84l-32.073 55.543c-3.092 5.368-8.72 8.361-14.49 8.361M484.935 277.524h-66.888c-9.232 0-16.722-7.49-16.722-16.722s7.49-16.722 16.722-16.722h66.888c9.232 0 16.722 7.49 16.722 16.722s-7.49 16.722-16.722 16.722" style="fill:#43bfbf"/><path d="M83.609 277.524H16.722C7.49 277.524 0 270.034 0 260.802s7.49-16.722 16.722-16.722H83.61c9.232 0 16.722 7.49 16.722 16.722-.001 9.232-7.491 16.722-16.723 16.722" style="fill:#36d9d9"/><path d="M386.128 511.739c-5.77 0-11.388-2.994-14.49-8.35l-41.402-71.634c-4.616-8.002-1.883-18.225 6.108-22.851 7.98-4.616 18.214-1.894 22.851 6.108l41.402 71.634c4.616 8.002 1.883 18.225-6.108 22.851a16.66 16.66 0 0 1-8.361 2.242" style="fill:#43bfbf"/><path d="M183.952 161.647c-5.77 0-11.388-2.994-14.49-8.35l-50.166-86.789c-4.616-8.002-1.883-18.225 6.108-22.851 7.991-4.616 18.225-1.883 22.851 6.108l50.166 86.789c4.616 8.002 1.883 18.225-6.108 22.851a16.66 16.66 0 0 1-8.361 2.242" style="fill:#36d9d9"/><path d="M391.027 196.592c-5.77 0-11.388-2.994-14.49-8.35-4.616-8.002-1.883-18.225 6.108-22.851l88.868-51.374c7.98-4.616 18.225-1.883 22.851 6.108 4.616 8.002 1.883 18.225-6.108 22.851l-88.868 51.374a16.65 16.65 0 0 1-8.361 2.242" style="fill:#43bfbf"/><path d="M48.174 394.577c-5.77 0-11.388-2.994-14.49-8.35-4.616-8.002-1.883-18.225 6.108-22.851l77.578-44.843c7.991-4.616 18.225-1.894 22.851 6.108 4.616 8.002 1.883 18.225-6.108 22.851l-77.578 44.843a16.67 16.67 0 0 1-8.361 2.242" style="fill:#36d9d9"/><path d="m494.646 40.63 11.822-11.822c6.532-6.532 6.532-17.114 0-23.646s-17.114-6.532-23.646 0L471 16.985 459.178 5.161c-6.532-6.532-17.114-6.532-23.646 0s-6.532 17.114 0 23.646l11.822 11.822-11.822 11.822c-6.532 6.532-6.532 17.114 0 23.646 3.266 3.266 7.545 4.9 11.822 4.9s8.557-1.633 11.822-4.9L471 64.276l11.822 11.822c3.266 3.266 7.545 4.9 11.822 4.9s8.557-1.633 11.822-4.9c6.532-6.532 6.532-17.114 0-23.646z" style="fill:#f9a926"/><circle cx="72.462" cy="82.435" r="16.722" style="fill:#ff6698"/><circle cx="27.87" cy="37.843" r="16.722" style="fill:#ff6698"/><circle cx="473.787" cy="483.765" r="16.722" style="fill:#e65c89"/><circle cx="429.195" cy="439.173" r="16.722" style="fill:#e65c89"/><path d="M316.791 380.25c-2.668 0-5.334-.631-7.783-1.916l-58.179-30.602-58.179 30.602a16.77 16.77 0 0 1-17.615-1.274 16.73 16.73 0 0 1-6.652-16.363l11.116-64.786-47.063-45.876a16.717 16.717 0 0 1 9.264-28.523l65.048-9.45 29.089-58.951c2.809-5.704 8.622-9.319 14.991-9.319s12.182 3.614 14.991 9.319l29.089 58.951 65.048 9.45a16.718 16.718 0 0 1 9.264 28.523l-47.063 45.876 11.116 64.786a16.73 16.73 0 0 1-6.652 16.363 16.76 16.76 0 0 1-9.83 3.19" style="fill:#ffc033"/><circle cx="108.692" cy="182.214" r="16.722" style="fill:#ff6698"/><circle cx="317.716" cy="143.753" r="16.722" style="fill:#e65c89"/><circle cx="376.243" cy="327.694" r="16.722" style="fill:#e65c89"/><path d="m65.451 469.826 11.822-11.822c6.532-6.532 6.532-17.114 0-23.646s-17.114-6.532-23.646 0L41.805 446.18l-11.822-11.822c-6.532-6.532-17.114-6.532-23.646 0s-6.532 17.114 0 23.646l11.822 11.822-11.823 11.822c-6.532 6.532-6.532 17.114 0 23.646 3.266 3.266 7.545 4.9 11.822 4.9s8.557-1.633 11.822-4.9l11.823-11.822 11.822 11.822c3.266 3.266 7.545 4.9 11.822 4.9s8.557-1.633 11.822-4.9c6.532-6.532 6.532-17.114 0-23.646z" style="fill:#ffc033"/><path d="M309.007 378.334a16.7 16.7 0 0 0 7.783 1.916c3.461 0 6.913-1.078 9.83-3.189a16.73 16.73 0 0 0 6.652-16.363l-11.116-64.786 47.063-45.876a16.717 16.717 0 0 0-9.264-28.523l-65.048-9.45-29.089-58.951a16.71 16.71 0 0 0-14.991-9.319v203.939z" style="fill:#f9a926"/><path d="M267.86 93.583V26.696c0-9.232-7.49-16.722-16.722-16.722v100.331c9.232 0 16.722-7.49 16.722-16.722" style="fill:#43bfbf"/><path d="M251.138 511.631c-9.232 0-16.722-7.49-16.722-16.722v-91.872c0-9.232 7.49-16.722 16.722-16.722s16.722 7.49 16.722 16.722v91.872c0 9.231-7.49 16.722-16.722 16.722" style="fill:#736056"/><path d="M267.86 494.909v-91.872c0-9.232-7.49-16.722-16.722-16.722v125.316c9.232 0 16.722-7.491 16.722-16.722" style="fill:#665247"/></svg>