<svg xmlns="http://www.w3.org/2000/svg" xml:space="preserve" viewBox="0 0 512 512"><path d="m0 512 147.555-341.254 193.7 193.7z" style="fill:#c7e624"/><path d="m0 512 244.404-244.404 96.85 96.85z" style="fill:#9fbd00"/><path d="M303.802 143.345h33.413v96.277h-33.413z" style="fill:#ffb42b" transform="rotate(-134.999 320.51 191.485)"/><path d="M318.062 149.262h16.707v96.277h-16.707z" style="fill:#ff7c18" transform="rotate(-134.999 326.416 197.402)"/><path d="m309.27 310.538-23.628-23.628c16.599-16.599 37.744-28.192 61.149-33.525 21.508-4.901 44.404-4.214 64.469 1.932l-9.787 31.95c-26.265-8.047-64.961-3.971-92.203 23.271" style="fill:#ff7c18"/><path d="m225.092 226.359-23.628-23.628c27.242-27.242 31.317-65.938 23.27-92.203l31.95-9.787c6.146 20.065 6.833 42.961 1.933 64.47-5.334 23.403-16.926 44.549-33.525 61.148" style="fill:#ffb42b"/><path d="m150.804 173.995-3.249-3.249-22.655 52.396 35.487 219.508 31.639-13.68zM98.452 469.431 76.668 334.688l-24.638 56.98 14.784 91.442zM270.385 293.576l-40.377-40.378 24.079 148.938 31.638-13.681z" style="fill:#9fbd00"/><path d="m432.043 159.63-31.17-7.497-23.247 22.078-9.094-30.743-30.743-9.094 22.078-23.246-7.497-31.171 31.171 7.497 23.247-22.078 9.093 30.743 30.743 9.094-22.078 23.246z" style="fill:#ffb42b"/><path d="m432.043 159.63-31.17-7.497-23.247 22.078-9.094-30.743 47.349-47.349 30.743 9.094-22.078 23.246zM497.419 322.41l-31.172-7.497L443 336.992l-9.092-30.745-30.745-9.092 22.079-23.247-7.497-31.172 31.171 7.497 23.247-22.078 9.094 30.743L512 267.992l-22.078 23.247z" style="fill:#ff7c18"/><path d="m189.59 14.582 7.498 31.171L175.009 69l30.744 9.093 9.093 30.744 23.246-22.079 31.172 7.498-7.497-31.172 22.078-23.247-30.743-9.093L244.008 0l-23.246 22.078z" style="fill:#ffb42b"/><path d="m160.387 442.65 31.639-13.68-15.169-93.826-29.139 29.138zM66.814 483.11l31.638-13.679-7.777-48.105-29.139 29.139zM285.725 388.455l-15.34-94.879-25.981-25.98-10.389 10.39 20.072 124.15z" style="fill:#6d8f00"/></svg>